<mxfile host="Electron" agent="Mozilla/5.0 (Windows NT 10.0; Win64; x64) AppleWebKit/537.36 (KHTML, like Gecko) draw.io/27.0.5 Chrome/134.0.6998.205 Electron/35.3.0 Safari/537.36" version="27.0.5">
  <diagram name="Page-1" id="kT-28FZkkSEQdVuJ4UPA">
    <mxGraphModel dx="856" dy="513" grid="1" gridSize="10" guides="1" tooltips="1" connect="1" arrows="1" fold="1" page="1" pageScale="1" pageWidth="850" pageHeight="1100" math="0" shadow="0">
      <root>
        <mxCell id="0" />
        <mxCell id="1" parent="0" />
        <mxCell id="uaDNSx32WWB1zPG3cUyV-3" value="&lt;font style=&quot;font-size: 14px;&quot;&gt;Application Server&lt;/font&gt;" style="shape=node;whiteSpace=wrap;html=1;container=0;" vertex="1" parent="1">
          <mxGeometry x="290" y="320" width="225" height="330" as="geometry" />
        </mxCell>
        <mxCell id="uaDNSx32WWB1zPG3cUyV-10" value="" style="endArrow=classic;html=1;rounded=0;dashed=1;dashPattern=3 3;" edge="1" parent="1" source="uaDNSx32WWB1zPG3cUyV-1" target="uaDNSx32WWB1zPG3cUyV-3">
          <mxGeometry relative="1" as="geometry">
            <mxPoint x="200" y="125" as="sourcePoint" />
            <mxPoint x="250" y="125" as="targetPoint" />
          </mxGeometry>
        </mxCell>
        <mxCell id="uaDNSx32WWB1zPG3cUyV-11" value="&lt;font style=&quot;font-size: 14px;&quot;&gt;HTTP / HTTPS&lt;/font&gt;" style="edgeLabel;html=1;align=center;verticalAlign=middle;resizable=0;points=[];" vertex="1" connectable="0" parent="uaDNSx32WWB1zPG3cUyV-10">
          <mxGeometry x="-0.5" relative="1" as="geometry">
            <mxPoint x="12" y="15" as="offset" />
          </mxGeometry>
        </mxCell>
        <mxCell id="uaDNSx32WWB1zPG3cUyV-12" value="" style="endArrow=classic;html=1;rounded=0;dashed=1;dashPattern=3 3;entryX=0.5;entryY=1;entryDx=0;entryDy=0;" edge="1" parent="1" source="uaDNSx32WWB1zPG3cUyV-3" target="uaDNSx32WWB1zPG3cUyV-23">
          <mxGeometry relative="1" as="geometry">
            <mxPoint x="400" y="125" as="sourcePoint" />
            <mxPoint x="411.76724137931024" y="270" as="targetPoint" />
          </mxGeometry>
        </mxCell>
        <mxCell id="uaDNSx32WWB1zPG3cUyV-13" value="&lt;font style=&quot;font-size: 14px;&quot;&gt;Database Connection&lt;/font&gt;" style="edgeLabel;html=1;align=center;verticalAlign=middle;resizable=0;points=[];" vertex="1" connectable="0" parent="uaDNSx32WWB1zPG3cUyV-12">
          <mxGeometry x="-0.5" relative="1" as="geometry">
            <mxPoint x="8" y="-17" as="offset" />
          </mxGeometry>
        </mxCell>
        <mxCell id="uaDNSx32WWB1zPG3cUyV-14" value="" style="endArrow=classic;html=1;rounded=0;dashed=1;dashPattern=3 3;entryX=0;entryY=0.5;entryDx=0;entryDy=0;" edge="1" parent="1" source="uaDNSx32WWB1zPG3cUyV-3" target="uaDNSx32WWB1zPG3cUyV-27">
          <mxGeometry relative="1" as="geometry">
            <mxPoint x="400" y="125" as="sourcePoint" />
            <mxPoint x="700" y="221.44295302013415" as="targetPoint" />
          </mxGeometry>
        </mxCell>
        <mxCell id="uaDNSx32WWB1zPG3cUyV-15" value="&lt;font style=&quot;font-size: 14px;&quot;&gt;API Call&lt;/font&gt;" style="edgeLabel;html=1;align=center;verticalAlign=middle;resizable=0;points=[];" vertex="1" connectable="0" parent="uaDNSx32WWB1zPG3cUyV-14">
          <mxGeometry x="-0.5" relative="1" as="geometry">
            <mxPoint x="24" y="-34" as="offset" />
          </mxGeometry>
        </mxCell>
        <mxCell id="uaDNSx32WWB1zPG3cUyV-17" value="" style="group" vertex="1" connectable="0" parent="1">
          <mxGeometry x="20" y="40" width="200" height="210" as="geometry" />
        </mxCell>
        <mxCell id="uaDNSx32WWB1zPG3cUyV-1" value="" style="shape=node;whiteSpace=wrap;html=1;container=0;" vertex="1" parent="uaDNSx32WWB1zPG3cUyV-17">
          <mxGeometry width="200" height="210" as="geometry" />
        </mxCell>
        <mxCell id="uaDNSx32WWB1zPG3cUyV-2" value="&lt;font style=&quot;font-size: 14px;&quot;&gt;User Interface&lt;/font&gt;" style="shape=component;whiteSpace=wrap;html=1;" vertex="1" parent="uaDNSx32WWB1zPG3cUyV-17">
          <mxGeometry x="25" y="60" width="150" height="110" as="geometry" />
        </mxCell>
        <mxCell id="uaDNSx32WWB1zPG3cUyV-16" value="&lt;font style=&quot;font-size: 14px;&quot;&gt;Client&lt;/font&gt;" style="text;html=1;align=center;verticalAlign=middle;resizable=0;points=[];autosize=1;strokeColor=none;fillColor=none;" vertex="1" parent="uaDNSx32WWB1zPG3cUyV-17">
          <mxGeometry x="70" y="15" width="60" height="30" as="geometry" />
        </mxCell>
        <mxCell id="uaDNSx32WWB1zPG3cUyV-22" value="" style="group" vertex="1" connectable="0" parent="1">
          <mxGeometry x="302.5" y="20" width="200" height="210" as="geometry" />
        </mxCell>
        <mxCell id="uaDNSx32WWB1zPG3cUyV-23" value="" style="shape=node;whiteSpace=wrap;html=1;container=0;" vertex="1" parent="uaDNSx32WWB1zPG3cUyV-22">
          <mxGeometry width="200" height="210" as="geometry" />
        </mxCell>
        <mxCell id="uaDNSx32WWB1zPG3cUyV-24" value="&lt;font style=&quot;font-size: 14px;&quot;&gt;Data Storage&lt;/font&gt;" style="shape=component;whiteSpace=wrap;html=1;" vertex="1" parent="uaDNSx32WWB1zPG3cUyV-22">
          <mxGeometry x="25" y="60" width="150" height="110" as="geometry" />
        </mxCell>
        <mxCell id="uaDNSx32WWB1zPG3cUyV-25" value="&lt;font style=&quot;font-size: 14px;&quot;&gt;Database Server&lt;/font&gt;" style="text;html=1;align=center;verticalAlign=middle;resizable=0;points=[];autosize=1;strokeColor=none;fillColor=none;" vertex="1" parent="uaDNSx32WWB1zPG3cUyV-22">
          <mxGeometry x="35" y="10" width="130" height="30" as="geometry" />
        </mxCell>
        <mxCell id="uaDNSx32WWB1zPG3cUyV-26" value="" style="group" vertex="1" connectable="0" parent="1">
          <mxGeometry x="640" y="30" width="200" height="210" as="geometry" />
        </mxCell>
        <mxCell id="uaDNSx32WWB1zPG3cUyV-27" value="" style="shape=node;whiteSpace=wrap;html=1;container=0;" vertex="1" parent="uaDNSx32WWB1zPG3cUyV-26">
          <mxGeometry width="200" height="210" as="geometry" />
        </mxCell>
        <mxCell id="uaDNSx32WWB1zPG3cUyV-28" value="&lt;font style=&quot;font-size: 14px;&quot;&gt;Price API&lt;/font&gt;" style="shape=component;whiteSpace=wrap;html=1;" vertex="1" parent="uaDNSx32WWB1zPG3cUyV-26">
          <mxGeometry x="25" y="60" width="150" height="110" as="geometry" />
        </mxCell>
        <mxCell id="uaDNSx32WWB1zPG3cUyV-29" value="&lt;font style=&quot;font-size: 14px;&quot;&gt;External Services&lt;/font&gt;" style="text;html=1;align=center;verticalAlign=middle;resizable=0;points=[];autosize=1;strokeColor=none;fillColor=none;" vertex="1" parent="uaDNSx32WWB1zPG3cUyV-26">
          <mxGeometry x="35" y="11" width="130" height="30" as="geometry" />
        </mxCell>
        <mxCell id="uaDNSx32WWB1zPG3cUyV-4" value="&lt;font style=&quot;font-size: 14px;&quot;&gt;Authentication&lt;/font&gt;" style="shape=component;whiteSpace=wrap;html=1;" vertex="1" parent="1">
          <mxGeometry x="327.5" y="340" width="150" height="110.00000000000001" as="geometry" />
        </mxCell>
        <mxCell id="uaDNSx32WWB1zPG3cUyV-5" value="&lt;font style=&quot;font-size: 14px;&quot;&gt;Share&lt;/font&gt;&lt;div&gt;&lt;font style=&quot;font-size: 14px;&quot;&gt;Management&lt;/font&gt;&lt;/div&gt;" style="shape=component;whiteSpace=wrap;html=1;" vertex="1" parent="1">
          <mxGeometry x="327.5" y="520" width="150" height="110.00000000000001" as="geometry" />
        </mxCell>
      </root>
    </mxGraphModel>
  </diagram>
</mxfile>
